<svg xmlns="http://www.w3.org/2000/svg" width="36" height="36" fill="none" viewBox="0 0 36 36"><rect width="6" height="6" y="5" fill="#536dfe" fill-opacity=".1" rx="1"/><rect width="6" height="6" x="30" y="30" fill="#536dfe" fill-opacity=".1" rx="1"/><path fill="#536dfe" fill-opacity=".5" d="M10 1C10 0.447715 10.4477 0 11 0H15C15.5523 0 16 0.447715 16 1V5C16 5.55228 15.5523 6 15 6H11C10.4477 6 10 5.55228 10 5V1Z"/><rect width="6" height="6" x="20" y="15" fill="#536dfe" fill-opacity=".5" rx="1"/><rect width="6" height="6" x="20" y="25" fill="#536dfe" fill-opacity=".5" rx="1"/><rect width="6" height="6" x="10" y="20" fill="#536dfe" fill-opacity=".5" rx="1"/><rect width="6" height="6" y="15" fill="#536dfe" fill-opacity=".7" rx="1"/><rect width="6" height="6" x="30" fill="#536dfe" fill-opacity=".1" rx="1"/><rect width="6" height="6" x="30" y="20" fill="#536dfe" fill-opacity=".1" rx="1"/><rect width="6" height="6" x="30" y="10" fill="#536dfe" fill-opacity=".7" rx="1"/><rect width="6" height="6" x="10" y="10" fill="#536dfe" fill-opacity=".9" rx="1"/><rect width="6" height="6" x="20" y="5" fill="#536dfe" fill-opacity=".9" rx="1"/></svg>