<svg xmlns="http://www.w3.org/2000/svg" width="24" height="24" viewBox="0 0 34 34"><path fill="#3f3d4b" d="M211.3,77.5h-4.2l-2.7-10.2-5.9,10.2h-4.7l9.1-15.7-1.5-5.5L189.2,77.5h-4.7L200,50.6h4.1l1.8,6.7h4.3l-2.9,5,4,15.2Z" transform="translate(-184.4 -50.6)"/><path fill="#28C081" d="M216.4,77.7l-8-8v6h-24v4h24v6Z" class="cls-1" transform="translate(-184.4 -50.6)"/><path fill="#3f3d4b" d="M204.4,67.3l-5.9,10.2h-4.7l9.1-15.7-1.5-5.5L189.2,77.5h-4.7L200,50.6h4.1l1.8,6.7h4.3l-2.9,5" transform="translate(-184.4 -50.6)"/></svg>